<svg xmlns="http://www.w3.org/2000/svg" xmlns:xlink="http://www.w3.org/1999/xlink" id="Layer_1" x="0" y="0" version="1.1" viewBox="755 -170 1150 420" xml:space="preserve" style="enable-background:new 755 -170 1150 420"><style type="text/css">.st0{fill:#fff}</style><g id="ojKCkF.tif_1_"><g><path d="M1071.2-167.7c14.3,1.8,28,4.9,40.7,12.5c25.6,15.4,39.5,38.8,43.7,67.2c7.5,50.4,2.3,99.8-17.8,147.1 c-1.2,2.8-1.9,5.9-2.9,9.2c10.1-4,19.6-9.3,29.8-11.5c22.1-4.9,44.6-5.8,64.8,6.8c32.8,20.5,32.7,56.7,8.4,82.5 c-15.8,16.7-36.2,24.5-58.6,27.6c-10.9,1.5-22,2.3-33.1,3.4c7.2,22.6,28.7,34.4,53.5,29c43.2-9.4,68.9-37.5,81.9-78.4 c6.6-20.7,12.2-41.7,18.9-62.3c1.1-3.3,5.2-7.8,8.1-8c16-0.8,32.1-0.4,49.6-0.4c-2.2,7.9-4,14.5-5.4,19.2 c9.6-5.9,19.7-14.2,31.2-18.9c18.2-7.4,36.8-4.7,50.2,10c12.1,13.3,14.7,31.4,10.9,48.5c-5.5,24.8-13.6,49-20.7,73.4 c-1.7,5.7-3.4,12.3,2.8,14.7c4.1,1.5,11.2-0.3,14.8-3.2c25.8-21.2,40-49.8,49.7-81c5.7-18.3,10.2-37,15.9-55.4 c1-3.1,5.6-7,8.6-7.2c15.7-0.7,31.4-0.3,49.1-0.3c-6.9,22.7-13.4,43.7-19.7,64.6c-5.6,18.4-11.5,36.8-16.4,55.4 c-3.8,14.6,6,24.8,20.7,21.2c14.8-3.6,27.1-11.5,31.9-27.4c10.7-35.5,21.3-71,32.4-106.3c0.9-2.8,4.7-6.6,7.3-6.7 c15.7-0.6,31.4-0.3,49.6-0.3c-3.3,11.6-6,21.8-9,31.8c-10.5,34.4-21.3,68.8-31.4,103.3c-1,3.4,0.2,9.9,2.4,11.2 c3.2,1.8,8.9,1.3,12.6-0.3c13.7-5.8,20.2-18.9,28.8-29.9c8-10.3,10.6-22.6,13.4-34.9c8.9-39.7,32.9-67.6,70.8-80.3 c23.9-8,49.4-7.4,72.3,8c21.6,14.5,29,43.3,15.6,65.6c-10.7,17.7-25.4,30.8-45.8,35.8c-18.1,4.4-36.5,7.6-55.1,11.4 c0.9,12.3,18.5,27,35,27.8c33.1,1.6,58-13.4,77.5-38.6c7.2-9.4,13.4-19.7,19-30.1c3.8-7,10.2-9.6,15.5-6.6 c4.4,2.5,6.3,9.8,8.4,15.3c0.8,2.1-1,5.4-2.3,7.8c-20.8,36.9-44.4,71.5-87.1,85.3c-33.1,10.7-66.7,10.1-96.8-9.9 c-10.6-7.1-18.2-18.7-26.5-27.5c-10.3,9.1-21.5,20.1-33.8,29.7c-15.8,12.3-34.5,15.4-53.4,10.4c-6.9-1.8-12.5-9.2-18.2-14.5 c-2.3-2.2-3.4-5.7-5.6-9.6c-16.5,15.7-34,25.7-56.5,26.4c-21.7,0.7-37.7-9.7-47.4-34.4c-4.6,4.1-9.1,7.9-13.3,12 c-13.3,12.9-28.9,21.8-47.3,22.5c-23.8,0.8-39.6-8.1-43.2-36.7c-2.7-21.5,6.5-40.3,12.2-60c3-10.3,5.9-21,6.6-31.6 c0.9-13.5-9.8-20.2-22.4-14.8c-18.8,8.1-29,24.1-35.1,42.4c-8.4,25.2-15.2,50.8-23.2,76.1c-6.7,21.1-7,20.9-29.4,20.9 c-9.8,0-19.6,0-31.1,0c2.4-7.9,4.4-14.6,6.4-21.4c-13.1,6.5-25.2,14.3-38.4,18.6c-33,11-66.3,11.3-97-7.2 c-24.5-14.8-36.6-47.4-31.7-77.1c0.2-1.2,0.4-2.5,0.6-3.9c-15.1,14.7-29,29.9-44.6,43.2c-29.6,25.2-62.7,44.8-101.3,53 c-10,2.1-20.7,1.1-31.1,1.1c-7.5,0-10.7-5.1-10.4-11.9c0.6-12.9,1.2-25.8,2.8-38.7c3.8-32.2,8.1-64.4,12.3-96.6 c3.2-24.9,7.5-49.7,9.7-74.7c1.9-22.3,2.1-44.5-8.2-65.8c-12.8-26.5-43.1-34.6-70.9-21.3c-22.6,10.9-30.8,31.3-32.4,54 c-1.1,15.5,1.2,31.4,3.6,46.8c3.7,23.4,19,38,40.6,45.2c8,2.7,17.3,1.8,26,2c5.8,0.2,11,1.2,11.6,7.8c0.6,6.7-4.4,8.6-10,9.7 C815.6,117.7,759.1,65.3,758.7-2.8c-0.3-39.6,15.8-71.3,45.9-96c14.8-12.2,32.4-19.5,51.2-23c24.2-4.5,47.9-2.1,71.1,6.2 c26.6,9.4,44.7,27.8,56.4,52.9c16.5,35.5,17.6,72.9,12.9,110.9c-3.6,28.9-6.9,57.7-10.4,86.6c-1.8,14.5-3.8,29-5.9,44.9 c22.2-7.5,39.4-20.1,54.8-34.9c20.8-20.1,38.1-43.1,50.6-69.3c17.9-37.5,28.6-76.8,24.8-118.7c-1.4-15.7-2.2-32.4-15.8-45.2 c-2.6,1.4-5.5,2.5-8,4.3c-19.6,13.5-52.8,5.5-64.3-20.7c-9.1-20.7-1.4-48.1,23.7-60c3.4-1.6,7.3-2.1,10.9-3.1 C1061.3-167.7,1066.2-167.7,1071.2-167.7z M1744.3,150c19.8-1.9,38.5-5.4,52.1-19.7c4.5-4.8,7.7-14.7,5.9-20.5 c-1.5-4.6-11.7-9.2-17.9-8.9C1765.2,101.7,1743.4,128.9,1744.3,150z M1146.5,149.2c5.8-0.6,11.7-0.5,17.4-1.8 c14-3.2,28.3-6.8,36.5-19.9c3.1-5,5.5-13.2,3.5-18.2c-2.6-6.6-10.1-9.8-18.5-8.7C1166.6,103.2,1145.3,129.3,1146.5,149.2z" class="st0"/></g></g></svg>